# xmcd
#
# Track frame offsets: 
#        180
#        11880
#        18145
#        40210
#        66670
#        72572
#        91527
#        97820
#        126100
#        148980
#        166230
#        181332
#        198255
#        225527
#        244255
#        266762
#
# Disc length: 3855 seconds
#
# Revision: 3
# Processed by: cddbd v1.5.2PL0 Copyright (c) Steve Scherf et al.
# Submitted via: ExactAudioCopy v0.99pb2
#
DISCID=dd0f0d10
DTITLE=Dead Can Dance - a passage in time
DYEAR=1991
DGENRE=Meditative
TTITLE0=Saltarello
TTITLE1=Song of Sophia
TTITLE2=Ulysses
TTITLE3=Cantara
TTITLE4=The Garden of Zephirus
TTITLE5=Enigma of the Absolute
TTITLE6=Wilderness
TTITLE7=The Host of Seraphim
TTITLE8=Anywhere out of the World
TTITLE9=The Writing on my Fathers Hand
TTITLE10=Severance
TTITLE11=The Song of the Sybil
TTITLE12=Fortune Presents Gifts not According to the Book
TTITLE13=In the Kingdom of the Blind The One-eyed are Kings
TTITLE14=Bird
TTITLE15=Spirit
EXTD=
EXTT0=
EXTT1=
EXTT2=
EXTT3=
EXTT4=
EXTT5=
EXTT6=
EXTT7=
EXTT8=
EXTT9=
EXTT10=
EXTT11=
EXTT12=
EXTT13=
EXTT14=
EXTT15=
PLAYORDER=
